<svg width="40" height="39" viewBox="0 0 40 39" fill="none" xmlns="http://www.w3.org/2000/svg">
<rect width="40" height="38.4" fill="white"/>
<g clip-path="url(#clip0_675_2166)">
<path d="M12.5 29C10.8425 29 9.515 30.3425 9.515 32C9.515 33.6575 10.8425 35 12.5 35C14.1575 35 15.5 33.6575 15.5 32C15.5 30.3425 14.1575 29 12.5 29ZM27.5 29C25.8425 29 24.515 30.3425 24.515 32C24.515 33.6575 25.8425 35 27.5 35C29.1575 35 30.5 33.6575 30.5 32C30.5 30.3425 29.1575 29 27.5 29ZM12.7625 24.125C12.7625 24.0575 12.7775 23.9975 12.8075 23.945L14.1575 21.5H25.3325C26.4575 21.5 27.44 20.8775 27.9575 19.955L33.7475 9.44L31.1225 8H31.115L29.4575 11L25.325 18.5H14.8025L14.6075 18.095L11.24 11L9.815 8L8.3975 5H3.5V8H6.5L11.9 19.3775L9.8675 23.0525C9.635 23.4875 9.5 23.975 9.5 24.5C9.5 26.1575 10.8425 27.5 12.5 27.5H30.5V24.5H13.1375C12.9275 24.5 12.7625 24.335 12.7625 24.125Z" fill="black"/>
</g>
<defs>
<clipPath id="clip0_675_2166">
<rect width="36" height="36" fill="white" transform="translate(2 2)"/>
</clipPath>
</defs>
</svg>
